<?xml version="1.0" encoding="UTF-8"?>
<svg xmlns="http://www.w3.org/2000/svg" version="1.1" viewBox="0 0 324.3 132.4">
  <defs>
    <style>
      .cls-1 {
        isolation: isolate;
      }

      .cls-2 {
        fill: #69522d;
      }
    </style>
  </defs>
  <!-- Generator: Adobe Illustrator 28.7.9, SVG Export Plug-In . SVG Version: 1.2.0 Build 218)  -->
  <g>
    <g id="Layer_1">
      <g id="Layer_1-2" data-name="Layer_1">
        <g class="cls-1">
          <g class="cls-1">
            <path class="cls-2" d="M7.8,117.8c-1,0-1.6-.5-1.6-1.2,0-1.2,1.5-1.6,1.5-8.5V15.8c0-6.7-1.5-7.3-1.5-8.7s.6-1.2,1.6-1.2h10.5c1,0,1.6.5,1.6,1.2,0,1.3-1.5,2-1.5,8.7v91.8c0,.9.4,1.3,1.2,1.3h38.2c3.1,0,3.4-.6,4.8-.6s1.2.6,1.2,1.6v6.6c0,.8-.5,1.2-1.4,1.2H7.8ZM62.7,97.1c.5,1.7,1.2,1.7,1.2,2.7s-.5,1-1.4,1h-10c-.9,0-1.3-.3-1.3-1s.4-1,.4-2.1l-.6-4.2c-.3-1.7-.9-2.4-1.6-2.4h-12c-.9,0-1.3.8-1.5,2.4l-.6,4.2c0,1.1.4,1.1.4,2.1s-.4,1-1.3,1h-9.8c-.7,0-1.2-.3-1.2-1s.6-1,1-2.7L37.6,8.9v-1.7c0-.9.4-1.3,1.2-1.3h9.3c.8,0,1.2.5,1.2,1.3s-.1,1.1-.1,1.7l13.5,88.2ZM37.3,81.8c0,1.2,0,1.8,1.1,1.8h10c.6,0,.9-.6.9-1.8l-5.8-46.9-6.1,46.9Z"/>
            <path class="cls-2" d="M110.2,5.9c1.1,0,1.6.5,1.6,1.2,0,1.3-1.5,2-1.5,8.7v103.9c0,6.9,1.5,7.3,1.5,8.5s-.6,1.2-1.6,1.2h-10.5c-1,0-1.6-.4-1.6-1.2,0-1.2,1.5-1.7,1.5-8.5V48l-8.7,19.2c-.3.6-.8.9-1.2.9s-.9-.3-1.1-.9l-8.8-19.2v60c0,6.9,1.5,7.3,1.5,8.5s-.6,1.2-1.6,1.2h-10.5c-1,0-1.6-.5-1.6-1.2,0-1.2,1.5-1.6,1.5-8.5V15.8c0-6.7-1.5-7.3-1.5-8.7s.6-1.2,1.6-1.2h10.5c1.1,0,1.6.5,1.6,1.2,0,1.3-1.5,2-1.5,8.7v5.5c0,2.7.5,5.1,1.4,7.2l8.5,18.6,8.5-18.6c.9-2,1.4-4.3,1.4-7.2v-5.5c0-6.7-1.5-7.3-1.5-8.7s.6-1.2,1.6-1.2h10.5Z"/>
            <path class="cls-2" d="M119.1,108.2V15.8c0-6.7-1.5-7.3-1.5-8.7s.6-1.2,1.6-1.2h33.7c7.6,0,12.4,3.8,12.4,9.9s-1.8,7.3-5.9,9.1c5.4,2.4,7.4,8.2,7.4,14.8s-.8,8.7-2.2,13.2l-16.2,49.2c-2.8,8.5-9.9,15.6-17.2,15.6h-12c-1.1,0-1.6-.5-1.6-1.2,0-1.3,1.5-1.6,1.5-8.4ZM129.9,19.2c0,.9.4,1.3,1.2,1.3h21.1c2.1,0,3.1-.9,3.1-2.8s-1.1-2.8-3.1-2.8h-21.1c-.8,0-1.2.4-1.2,1.2v3.2ZM129.9,108.9h1c2.9,0,5.4-3,7.3-9.1l15.6-48.4c1.4-4.2,2.2-8.2,2.2-12,0-6.4-2.9-11.2-11.8-11.2h-13.5c-.6.2-.9.6-.9,1.2v79.6Z"/>
            <path class="cls-2" d="M210.6,15.8c0-6.7-1.5-7.3-1.5-8.7s.6-1.2,1.6-1.2h10.5c1,0,1.6.5,1.6,1.2,0,1.3-1.5,2-1.5,8.7v95.5c0,9.6-5.9,18.1-18.5,18.1s-15.9-3.6-15.9-6.6.1-.9.4-1.5l2-5.2c.2-.4.6-.8,1.2-.8s.9.3,1.2.8c2.7,3,6.4,4.5,11.1,4.5s7.7-4.5,7.7-8.8V15.8Z"/>
            <path class="cls-2" d="M266.2,97.1c.5,1.7,1,1.7,1,2.7s-.5,1-1.2,1h-10.2c-.8,0-1.2-.3-1.2-1s.3-1,.3-2.1l-.6-4.2c-.3-1.7-.8-2.4-1.5-2.4h-12.1c-.9,0-1.4.8-1.5,2.4l-.5,4.2c0,1.1.3,1.1.3,2.1s-.4,1-1.2,1h-9.8c-.9,0-1.3-.3-1.3-1s.8-1,1.2-2.7l13.2-88.2c0-.6-.2-1-.2-1.7,0-.9.5-1.3,1.3-1.3h9.2c.9,0,1.3.5,1.3,1.3s-.2,1.1-.2,1.7l13.5,88.2ZM267.3,116.6c0,.8-.5,1.2-1.2,1.2h-37.9c-.9,0-1.3-.5-1.3-1.2v-6.4c0-.8.4-1.2,1.3-1.2h37.9c.8,0,1.2.5,1.2,1.2v6.4ZM240.7,81.8c0,1.2,0,1.8,1,1.8h10c.8,0,1-.6,1-1.8l-6-46.9-6.1,46.9Z"/>
            <path class="cls-2" d="M313.8,5.9c1,0,1.7.5,1.7,1.2,0,1.3-1.5,2-1.5,8.7v103.9c0,6.9,1.5,7.3,1.5,8.5s-.6,1.2-1.7,1.2h-10.5c-1,0-1.6-.4-1.6-1.2,0-1.2,1.5-1.7,1.5-8.5V48l-8.7,19.2c-.3.6-.8.9-1.2.9s-.9-.3-1.1-.9l-8.8-19.2v60c0,6.9,1.5,7.3,1.5,8.5s-.6,1.2-1.6,1.2h-10.5c-1,0-1.6-.5-1.6-1.2,0-1.2,1.5-1.6,1.5-8.5V15.8c0-6.7-1.5-7.3-1.5-8.7s.6-1.2,1.6-1.2h10.5c1,0,1.6.5,1.6,1.2,0,1.3-1.5,2-1.5,8.7v5.5c0,2.7.5,5.1,1.4,7.2l8.5,18.6,8.5-18.6c.9-2,1.4-4.3,1.4-7.2v-5.5c0-6.7-1.5-7.3-1.5-8.7s.6-1.2,1.6-1.2h10.5Z"/>
          </g>
        </g>
      </g>
    </g>
  </g>
</svg>